<?xml version="1.0" encoding="UTF-8" standalone="no"?>
<!-- Created with Inkscape (http://www.inkscape.org/) -->

<svg
   width="210mm"
   height="297mm"
   viewBox="0 0 210 297"
   version="1.1"
   id="svg5"
   xml:space="preserve"
   inkscape:version="1.1.2 (b8e25be833, 2022-02-05)"
   sodipodi:docname="LOGO.svg"
   xmlns:inkscape="http://www.inkscape.org/namespaces/inkscape"
   xmlns:sodipodi="http://sodipodi.sourceforge.net/DTD/sodipodi-0.dtd"
   xmlns="http://www.w3.org/2000/svg"
   xmlns:svg="http://www.w3.org/2000/svg"><sodipodi:namedview
     id="namedview7"
     pagecolor="#ffffff"
     bordercolor="#000000"
     borderopacity="0.25"
     inkscape:showpageshadow="2"
     inkscape:pageopacity="0.0"
     inkscape:pagecheckerboard="0"
     inkscape:deskcolor="#d1d1d1"
     inkscape:document-units="mm"
     showgrid="false"
     inkscape:zoom="0.52724989"
     inkscape:cx="333.80756"
     inkscape:cy="556.66204"
     inkscape:window-width="1643"
     inkscape:window-height="1040"
     inkscape:window-x="-1730"
     inkscape:window-y="0"
     inkscape:window-maximized="0"
     inkscape:current-layer="layer2"
     inkscape:pageshadow="2" /><defs
     id="defs2"><linearGradient
       id="linearGradient1878"><stop
         style="stop-color:#fe0101;stop-opacity:1;"
         offset="0"
         id="stop1880" /><stop
         style="stop-color:#fe0101;stop-opacity:0;"
         offset="1"
         id="stop1882" /></linearGradient></defs><g
     inkscape:groupmode="layer"
     id="layer2"
     inkscape:label="Vrstva 2"
     style="display:inline"><g
       id="g281"
       transform="matrix(0.13529739,0,0,0.13336444,68.463607,147.78914)"
       style="display:inline"><g
         inkscape:label="Vrstva 1"
         id="layer1-3"
         transform="matrix(3.7166486,0,0,3.9272639,1292.3964,2587.2257)"
         style="display:inline"><g
           inkscape:label="Vrstva 1"
           inkscape:groupmode="layer"
           id="layer1"
           transform="matrix(7.3076953,0,0,7.4401386,-631.36405,-1061.5381)"
           sodipodi:insensitive="true"
           style="display:inline"><g
             id="g131"
             transform="matrix(0.37995556,0,0,0.41185874,31.438878,23.841159)"><path
               class="st0"
               d="M 18.61,54.89 C 15.7,28.8 30.94,10.45 59.52,0 42.02,22.71 74.44,47.31 76.23,70.89 80.42,63.74 82.8,54.2 83.27,41.44 c 21.43,33.62 3.66,88.57 -43.5,80.67 -4.33,-0.72 -8.5,-2.09 -12.3,-4.13 C 10.27,108.8 0,88.79 0,69.68 0,57.5 5.21,46.63 11.95,37.99 c 0.9,8.46 2.82,14.77 6.66,16.9 z"
               id="path127" /><path
               class="st1"
               d="m 33.87,92.58 c -4.86,-12.55 -4.19,-32.82 9.42,-39.93 0.1,23.3 23.05,26.27 18.8,51.14 3.92,-4.44 5.9,-11.54 6.25,-17.15 6.22,14.24 1.34,25.63 -7.53,31.43 -26.97,17.64 -50.19,-18.12 -34.75,-37.72 0.47,4.38 5.83,11.14 7.81,12.23 z"
               id="path129" /></g></g></g><g
         inkscape:label="Meč"
         id="layer2-1"
         transform="matrix(3.7166486,0,0,3.9272639,492.48666,2711.6437)"><path
           d="m -56.337409,-502.19823 -9.865754,-32.36123 -7.51009,-1.79049 c -19.308069,-4.60324 -79.546077,-47.02612 -79.546077,-56.02069 0,-1.48705 2.89787,-6.37372 6.43976,-10.85921 12.42865,-15.74 16.9612,-28.63956 15.71046,-44.71166 -0.99267,-12.75605 -2.39043,-15.99827 -10.17374,-23.59928 -9.50603,-9.28337 -29.50708,-17.09462 -44.66191,-17.44241 -19.68425,-4.27979 -15.03142,-3.89288 -17.18869,-7.95126 -0.73707,-1.38665 -0.62955,-3.292 -1.22299,-5.43018 0.22273,-6.5965 5.93628,-5.39254 12.81527,-9.10718 15.59724,-8.42238 22.38953,-17.43583 24.51361,-32.52982 1.29063,-9.1714 0.44466,-14.33062 -3.8536,-23.50192 -5.61499,-11.98073 -15.19809,-20.12238 -43.09617,-36.61389 -17.13315,-10.128 -24.63893,-18.37884 -28.99217,-31.87006 l -3.34149,-10.35585 -2.97391,6.95383 c -7.08712,16.57157 6.46854,38.78918 38.48463,63.07601 22.39364,16.98741 27.19376,29.81868 16.23419,43.39613 -7.92785,9.82151 -14.8985,7.32319 -12.99476,-4.87364 2.72336,-17.44778 4.67812,-26.84662 4.96521,-31.17375 -5.83248,-5.28034 -11.93768,-10.41608 -18.15001,-15.32281 -4.64384,4.90301 -15.11805,69.80603 -12.91414,76.85168 0.59776,1.91102 4.99914,5.08409 9.7808,7.05127 8.16149,3.35764 43.87904,13.85943 9.00307,3.49881 -12.04567,-3.57845 -33.71486,-14.98402 -37.26875,-25.45715 -4.54092,-13.38174 -7.27301,-11.85191 -7.27301,4.07249 -1.80682,57.65901 70.20374,38.71624 96.07997,72.65325 3.7362,7.43926 3.01358,19.49726 -1.58798,26.49807 l -4.08356,6.21277 -8.16591,-8.43411 c -4.49126,-4.63872 -10.68584,-14.13412 -13.76576,-21.1008 -3.07986,-6.96669 -2.87905,-13.31476 -7.00064,-22.89332 -8.11727,-2.52549 -28.18816,-7.64526 -35.13422,-10.61307 -0.5898,-0.25201 -1.06327,-1.1773 -1.32686,-0.88397 -3.13721,3.49182 10.95826,51.48247 14.30556,58.38022 5.7799,11.91067 25.44613,39.48627 38.80769,54.41549 11.15018,12.45836 11.41022,13.1122 6.69441,16.83407 -10.33201,8.15435 -37.65837,3.79278 -53.85986,-8.5966 -7.39941,-5.65836 -7.10215,-2.60106 1.32281,13.60597 13.41099,25.79848 43.07973,32.58698 68.58346,15.69255 l 13.22132,-8.7582 10.98093,6.8576 c 7.53988,4.70861 15.82049,8.98899 17.0276,6.90766 2.33116,-4.01944 -27.15415,42.77329 0.57792,45.1465 44.559618,3.81327 57.735802,-3.10641 60.403381,-25.85182 z M -197.17729,-806.94482 c 1.29846,-6.91829 2.71684,-7.89654 13.40518,-9.24551 22.99955,-2.90272 37.19719,-17.8397 42.85753,-45.08928 2.38344,-11.47428 2.30629,-11.75664 -1.76674,-6.46516 -2.34248,3.04322 -5.96518,8.22453 -8.05046,11.51401 -4.39308,6.93012 -31.17807,19.27847 -37.80908,17.43059 -3.54419,-0.98762 -4.78003,-4.95691 -5.81298,-18.66947 -0.84296,-11.19065 -2.88928,-19.27267 -5.72532,-22.61206 -4.86628,-5.73006 -29.22018,-19.45525 -31.05395,-17.50117 -0.63466,0.67632 2.2089,5.31111 6.31904,10.2995 10.16591,12.33817 14.47606,30.15926 12.69722,52.49881 -0.79135,9.93807 -2.39439,19.81437 -2.92255,22.13491 -0.74776,3.28556 -2.50452,6.04744 0.17263,7.88861 6.36551,3.56931 11.39851,6.57554 14.78706,9.17605 1.42219,-1.07735 1.95412,-6.60626 2.90242,-11.35983 z"
           sodipodi:nodetypes="cccsssssscsssscccsssccsssssscccscssssssscccssccsssssssssssscc"
           id="path1459"
           style="fill:#ffffff;fill-opacity:1;stroke:#000000;stroke-width:1.72893;stroke-opacity:1" /><path
           d="m -55.655479,-503.50988 9.488744,-32.96946 7.223093,-1.8241 c 18.57021,-4.68978 76.50625,-47.90999 76.50625,-57.07358 0,-1.51504 -2.787135,-6.49353 -6.193661,-11.06332 -11.953687,-16.03581 -16.313044,-29.1778 -15.110094,-45.55198 0.954754,-12.99582 2.299068,-16.29901 9.784933,-24.04281 9.142794,-9.45785 28.379469,-17.41593 42.955173,-17.77027 18.932005,-4.36018 14.457001,-3.96601 16.531823,-8.1007 0.708917,-1.41271 0.60552,-3.35385 1.176247,-5.53224 -0.214194,-6.72043 -5.709419,-5.49385 -12.325562,-9.27833 -15.001163,-8.58068 -21.533878,-17.76353 -23.576798,-33.14117 -1.241327,-9.3438 -0.427687,-14.59998 3.706361,-23.94364 5.400393,-12.2059 14.617271,-20.5006 41.449233,-37.30205 16.478397,-10.31835 23.697347,-18.72423 27.884227,-32.46905 l 3.21382,-10.55045 2.86024,7.08451 c 6.81629,16.88305 -6.22136,39.51819 -37.013947,64.26149 -21.537865,17.30667 -26.154519,30.37914 -15.613793,44.21174 7.624895,10.00613 14.329147,7.46081 12.498162,-4.96523 -2.619273,-17.7757 -4.499338,-27.35118 -4.775458,-31.75965 5.609578,-5.37957 11.481474,-10.61186 17.456396,-15.61077 4.4664,4.99515 14.54035,71.11796 12.42065,78.29603 -0.57493,1.94693 -4.8081,5.17967 -9.40703,7.18381 -7.849608,3.42076 -42.202229,14.11992 -8.659043,3.56455 11.585343,-3.64566 32.426463,-15.2656 35.844543,-25.93558 4.36738,-13.63327 6.99506,-12.07466 6.99506,4.14904 1.7378,58.74269 -67.5209,39.44384 -92.408265,74.01867 -3.59343,7.57909 -2.89842,19.86375 1.527319,26.99615 l 3.927506,6.32954 7.853825,-8.59262 c 4.319625,-4.72595 10.277466,-14.39978 13.239687,-21.49741 2.962181,-7.09761 2.769053,-13.565 6.733137,-23.32359 7.807066,-2.57294 27.110931,-7.78894 33.791551,-10.81253 0.56727,-0.25674 1.02265,-1.19946 1.27615,-0.9006 3.01734,3.55747 -10.53949,52.45008 -13.75888,59.47745 -5.559017,12.13455 -24.473678,40.2284 -37.324627,55.4382 -10.724101,12.69251 -10.974192,13.35863 -6.438593,17.15045 9.93717,8.30762 36.219261,3.86408 51.8016,-8.75815 7.11664,-5.76473 6.83076,-2.64999 -1.27227,13.86167 -12.898483,26.28335 -41.433419,33.19943 -65.96252,15.98749 l -12.716074,-8.92282 -10.561302,6.9865 c -7.251721,4.79712 -14.4659498,7.69298 -15.6269273,5.57253 -2.2420776,-4.09497 25.3665003,45.04216 -1.3057853,47.45998 -42.8567994,3.88492 -55.5294564,-3.16479 -58.0951004,-26.3377 z M 79.802228,-813.98401 c -1.248811,-7.04832 -2.612996,-8.04496 -12.892899,-9.4193 -22.120585,-2.95724 -35.775689,-18.17496 -41.219741,-45.93671 -2.292347,-11.68992 -2.218124,-11.97758 1.699246,-6.58666 2.252988,3.10039 5.737221,8.37911 7.742787,11.73043 4.225227,7.06036 29.986625,19.64075 36.364219,17.75819 3.408735,-1.00621 4.597398,-5.05007 5.590834,-19.02039 0.810745,-11.40096 2.77888,-19.63487 5.506532,-23.03704 4.68031,-5.83774 28.103534,-19.82089 29.867224,-17.83008 0.61041,0.68902 -2.12449,5.41093 -6.07757,10.49307 -9.777376,12.57005 -13.922852,30.72608 -12.211981,53.4855 0.761106,10.12487 2.302904,20.18673 2.810864,22.5509 0.719185,3.34735 2.4088,6.16114 -0.166024,8.03687 -6.122262,3.63644 -10.962926,6.69914 -14.221973,9.34852 -1.367865,-1.09759 -1.879455,-6.73039 -2.791518,-11.5733 z"
           sodipodi:nodetypes="cccsssssscsssscccsssccsssssscccscssssssscccssccsssssssssssscc"
           id="path7306"
           style="fill:#ff0000;fill-opacity:1;stroke:#000000;stroke-width:1.71142;stroke-opacity:1" /></g><g
         id="g745"
         transform="matrix(14.233113,-12.557613,10.91465,16.375599,-2215.6095,-72.774835)"><path
           style="fill:#000000;stroke-width:0.264583"
           d="m 86.403224,110.9758 4.34678,3.45968 7.45161,-9.75807 10.024186,-11.088704 6.56452,-4.70161 -8.51613,-7.18548 -4.08065,5.32258 -2.04032,6.03225 z"
           id="path683" /><path
           style="fill:#000000;stroke-width:0.264583"
           d="m 97.491935,68.838704 c 0,0 1.8629,-0.709674 4.258055,-0.443543 2.39517,0.266133 1.95162,-0.266131 5.05646,0.887093 3.10483,1.15323 5.76612,3.45968 6.56451,4.08065 0.79839,0.62097 4.70162,3.54838 5.58871,4.25806 0.8871,0.70968 2.04032,1.7742 2.04032,1.7742 0,0 2.30646,1.24193 4.43549,2.04032 2.12903,0.79839 4.43548,1.06451 5.23387,1.06451 0.79839,0 2.04032,0.17742 2.04032,0.17742 0,0 0.26613,1.24194 -0.8871,4.08065 -1.15322,2.83871 -3.01612,5.58871 -4.87903,7.54032 -1.8629,1.95162 -6.12096,3.99194 -6.12096,3.99194 0,0 -1.86291,-5.58871 -3.72581,-7.89517 -1.86291,-2.30645 -4.08065,-3.81451 -5.85484,-5.41129 -1.77419,-1.59677 -5.94355,-4.70161 -5.94355,-4.70161 l 3.37097,-4.34677 c 0,0 -5.85484,-4.79032 -9.758065,-6.29839 -3.90322,-1.508064 -1.41935,-0.79839 -1.41935,-0.79839 z"
           id="path685" /></g></g><g
       id="g475"
       transform="matrix(0.34665992,0,0,0.28092733,184.51587,198.32587)"><g
         inkscape:label="Meč"
         id="layer2-7"
         transform="translate(-22.335696,-34.397355)"><path
           d="m -99.676377,253.00825 c -8.040393,-29.58948 40.56881,-112.47023 69.97755,-134.89807 -8.30352,-5.50915 -34.65738,-5.71327 -42.30113,1.51985 -6.4318,6.08642 -7.70714,6.14689 -12.01017,0.57002 -8.85465,-11.47602 -18.356553,-11.94551 -28.436863,-1.40521 -13.42533,14.03779 -12.52514,28.91097 2.23262,36.89072 9.6997,5.24485 11.090323,7.68856 7.91036,13.90136 -8.71608,17.02941 -27.87744,14.95507 -35.31616,-3.82309 l -4.77334,-12.04966 -7.63231,10.14577 c -8.31985,11.05958 -23.07086,13.3522 -29.97136,4.65825 -2.3955,-3.01815 -5.44755,-11.19732 -6.78243,-18.176 -2.41477,-12.62479 -2.42748,-8.37576 11.64679,-10.30038 17.51409,-2.395 25.84287,-3.59379 25.84287,-23.49812 0,-17.226966 -6.94356,-18.237746 -24.53453,-23.327596 -6.67002,-1.9299 -8.8747,-1.03035 -9.86173,-10.00543 -0.81102,-7.37344 -4.92397,-13.24763 -11.92711,-17.03435 -9.85628,-5.32943 -16.32903,-4.98555 -27.81542,4.41419 -9.8829,8.08746 -11.96612,10.39793 -10.08093,18.25184 2.12488,8.85239 -0.74468,8.97867 -11.33877,8.97867 -6.51602,0 -12.73812,6.567876 -16.10972,10.093316 -13.6699,14.2937 2.86558,35.51735 22.57417,32.49267 9.64299,-1.47984 11.07394,-0.38276 11.07394,8.49018 0,20.93062 -21.11744,32.23 -35.2468,18.85969 -5.99874,-5.67658 -7.19636,-5.30294 -13.0754,4.07893 -9.03192,14.41352 -26.46764,14.03065 -36.8052,-0.80804 l -7.75801,-11.136 12.22517,-4.16029 c 14.24668,-4.84823 22.5096,-22.65811 15.75034,-33.94829 -5.47892,-9.15171 -23.84383,-11.13897 -31.98501,-3.46114 -5.62948,5.30906 -7.47754,5.34927 -14.05417,0.30576 -8.65954,-6.64095 -31.61128,-2.22896 -35.11978,-0.89737 21.86318,43.11349 48.81501,84.65155 65.36529,130.71704 2.23767,6.55027 10.80388,7.13832 103.98719,7.13832 70.3106,0 104.350053,0.48227 104.350053,-2.57754 z"
           sodipodi:nodetypes="ccssssscccssssssssssssssscccssscssc"
           id="path2931"
           style="fill:#ffff00;fill-opacity:1;stroke:#000000;stroke-width:2.64322;stroke-opacity:1" /></g></g><path
       style="fill:#ffffff;stroke-width:0.264583"
       d="m 320.16075,45.325504 c 0,0 1.59677,-1.15323 2.57258,-2.30646 0.97581,-1.15322 2.30645,-2.57258 3.10484,-3.99193 0.79839,-1.41936 2.12903,-4.08065 2.12903,-4.08065 0,0 1.50806,0.35484 2.39516,0.35484 0.8871,0 1.68549,0.17742 1.68549,0.17742 0,0 -0.35484,2.66129 -1.41936,4.34677 -1.06452,1.68549 -2.04032,3.45968 -3.81452,5.14516 -1.77419,1.68549 -3.10483,2.75 -3.63709,3.01614 -0.53226,0.26612 -1.50807,0.79838 -1.50807,0.79838 z"
       id="path687" /></g><style
     type="text/css"
     id="style125">.st0{fill-rule:evenodd;clip-rule:evenodd;fill:#EC6F59;} .st1{fill-rule:evenodd;clip-rule:evenodd;fill:#FAD15C;}</style></svg>
